<svg version="1.2" xmlns="http://www.w3.org/2000/svg" viewBox="0 0 800 800" width="800" height="800">
	<style>
		.s0 { fill: #ffffff } 
	</style>
	<g>
		<g>
			<path class="s0" d="m677.55 244.9h-130.61c-67.52 0-122.45 54.93-122.45 122.45v8.16h-48.98v-8.16c0-67.52-54.93-122.45-122.45-122.45h-130.61c-67.52 0-122.45 54.93-122.45 122.45v65.3c0 67.52 54.93 122.45 122.45 122.45h130.61c67.52 0 122.45-54.93 122.45-122.45v-8.16h48.98v8.16c0 67.52 54.93 122.45 122.45 122.45h130.61c67.52 0 122.45-54.93 122.45-122.45v-65.3c0-67.52-54.93-122.45-122.45-122.45zm-351.02 130.61h-89.8v48.98h89.8v8.16c0 40.52-32.96 73.47-73.47 73.47h-130.61c-40.51 0-73.47-32.95-73.47-73.47v-65.3c0-40.52 32.96-73.47 73.47-73.47h130.61c40.51 0 73.47 32.95 73.47 73.47 0 0 0 8.16 0 8.16zm424.49 57.14c0 40.52-32.96 73.47-73.47 73.47h-130.61c-40.51 0-73.47-32.95-73.47-73.47v-8.16h89.8v-48.98h-89.8v-8.16c0-40.51 32.95-73.47 73.47-73.47h130.61c40.51 0 73.47 32.96 73.47 73.47 0 0 0 65.3 0 65.3z"/>
		</g>
	</g>
</svg>