<svg version="1.2" xmlns="http://www.w3.org/2000/svg" viewBox="0 0.42146223760650514 564.633346013249 191.5785377623935" width="565" height="192">
	<style>
		.s0 { fill: #ffffff } 
	</style>
	<g id="Laag 1">
		<g id="&lt;Group&gt;">
			<path id="&lt;Compound Path&gt;" class="s0" d="m563.08 153.64c0-16.76-13.63-30.4-30.39-30.4-16.76 0-30.39 13.64-30.39 30.4 0 16.76 13.63 30.39 30.39 30.39 12.12 0 23.01-7.15 27.85-18.24h-4.42c-4.52 8.72-13.5 14.24-23.43 14.24-13.88 0-25.29-10.77-26.32-24.39h56.71zm-56.71-2c1.03-13.63 12.44-24.4 26.32-24.4 13.88 0 25.29 10.77 26.32 24.4z"/>
		</g>
		<path id="&lt;Path&gt;" class="s0" d=""/>
		<g id="&lt;Group&gt;">
			<path id="&lt;Compound Path&gt;" class="s0" d="m73.82 61.63l19.63-53.93-1.88-0.69c-16.65-6.06-34.67-5.27-50.73 2.22-16.05 7.49-28.24 20.78-34.3 37.43-12.21 33.56 4.56 70.87 37.46 84.17l-19.63 53.93 1.88 0.69c7.4 2.69 15.08 4.03 22.73 4.03 9.55 0 19.08-2.09 27.99-6.25 16.06-7.49 28.24-20.78 34.3-37.43 12.22-33.56-4.56-70.87-37.45-84.17zm33.7 82.8c-5.7 15.65-17.15 28.14-32.24 35.18-14.48 6.75-30.66 7.7-45.77 2.73l19.6-53.85-1.87-0.69c-32.06-11.86-48.63-47.65-36.94-79.77 5.7-15.65 17.14-28.14 32.23-35.18 14.49-6.75 30.67-7.7 45.78-2.73l-19.6 53.85 1.86 0.69c32.06 11.86 48.64 47.65 36.95 79.77z"/>
			<path id="&lt;Compound Path&gt;" class="s0" d="m123.44 188.42h58.48v-130.57h-58.48zm4-126.57h50.48v122.57h-50.48z"/>
			<path id="&lt;Compound Path&gt;" class="s0" d="m422.87 121.45l-36.78-63.7h-67.25v63.75l-58.74 0.01 21.49-59.85-1.88-0.68c-16.65-6.06-34.66-5.27-50.72 2.22-16.06 7.49-28.24 20.78-34.3 37.43-2.51 6.9-3.85 14.13-3.99 21.48-0.34 18.91 7.43 37.12 21.34 49.97 6.55 5.92 14.09 10.4 22.41 13.33 5.88 2.08 12.02 3.3 18.29 3.65v0.12h70.03l0.02-63.75h34.85l36.87 63.86 66.86-0.06v-67.78zm-104.1 63.73h-62.47l-1.51-0.04c-6.52-0.17-12.92-1.35-19.02-3.5-7.81-2.75-14.9-6.97-21.04-12.51-13.05-12.06-20.35-29.18-20.03-46.95 0.13-6.91 1.39-13.7 3.75-20.18 5.69-15.65 17.14-28.14 32.23-35.18 14.49-6.75 30.67-7.7 45.78-2.73l-22.05 61.43 64.38-0.02zm138.6 0.05l-60.55 0.05-36.87-63.86h-37.11v-59.68h60.94l36.78 63.71h36.81z"/>
		</g>
		<g id="&lt;Group&gt;">
			<path id="&lt;Path&gt;" class="s0" d="m523.31 57.89h-4.27l-49.1 131.6h4.27z"/>
		</g>
	</g>
</svg>