<svg version="1.2" xmlns="http://www.w3.org/2000/svg" viewBox="0 0 2352 1279" width="2352" height="1279">
	<style>
		.s0 { fill: #fefefe } 
	</style>
	<g id="Laag 1">
		<path fill-rule="evenodd" class="s0" d="m911.11 929.75v-20.79h18.69v112.35c0 38.55-18.45 57.93-55.13 57.93-16.35 0-28.96-3.27-37.37-9.8q-12.96-9.82-16.12-29.43h18.69c1.4 8.17 4.9 14.24 10.27 17.98 5.38 3.97 13.55 6.07 24.53 6.07 24.29 0 36.44-13.55 36.44-40.17v-21.26c-8.88 16.12-22.43 24.29-40.64 24.29-16.82 0-30.14-5.83-39.95-17.28-9.81-11.22-14.48-25.46-14.48-42.98 0-17.76 4.67-32.01 14.48-43.22 9.81-11.91 23.13-17.75 39.95-17.75 18.21 0 31.76 7.94 40.64 24.06zm-66.1 4.44c-6.54 7.94-9.81 18.92-9.81 32.47 0 12.61 2.8 23.12 8.64 31.06 6.54 8.88 16.12 13.55 29.2 13.55 12.14 0 21.49-4.21 28.49-12.61 6.55-8.17 9.82-18.92 9.82-32 0-13.55-3.27-24.53-9.82-32.47-7-8.88-16.35-13.08-28.26-13.08-12.15 0-21.49 4.2-28.26 13.08z"/>
		<path fill-rule="evenodd" class="s0" d="m1033.03 908.49v18.69c-6.07-1.87-12.15-2.57-17.98-2.57-9.35 0-17.29 3.97-23.6 12.38-6.54 7.94-9.57 17.52-9.57 28.73v64.01h-18.46v-120.77h18.46v21.02c3.27-7 7.47-12.61 12.61-16.58 6.31-5.14 13.55-7.71 21.96-7.71 6.54 0 12.15 0.94 16.58 2.8z"/>
		<path fill-rule="evenodd" class="s0" d="m1139.54 919.24c7 7.94 10.74 18.92 10.74 32.94v77.55h-17.52v-20.33c-4.67 6.54-10.98 11.91-18.45 16.12-8.87 4.91-18.92 7.47-30.13 7.47-12.15 0-21.73-3.03-28.97-9.1-7.47-6.31-11.21-14.49-11.21-24.3 0-13.78 5.37-24.06 16.59-31.06 9.8-6.55 23.82-10.05 42.04-10.28l28.96-0.47v-6.3c0-20.33-10.51-30.37-31.53-30.37-8.87 0-16.12 1.63-21.72 5.37-6.31 3.74-10.28 9.58-12.15 17.28l-18.45-1.4c2.57-12.61 8.87-22.19 18.68-28.26 8.88-5.61 20.32-8.41 34.81-8.41 17.28 0 29.9 4.44 38.31 13.55zm-35.74 53.02c-27.1 0.47-40.65 9.35-40.65 26.87 0 5.6 2.11 10.04 6.78 13.78 4.67 3.5 10.74 5.37 18.22 5.37 11.44 0 21.49-3.74 30.36-11.21 8.65-7.24 13.08-15.65 13.08-25v-10.27z"/>
		<path fill-rule="evenodd" class="s0" d="m1281.54 925.08c9.11 11.68 13.79 26.39 13.79 44.61 0 17.76-4.68 32.47-13.55 44.15-9.82 12.61-23.13 19.16-40.42 19.16q-25.92 0-39.94-25.23v68.2h-18.68v-167.01h17.52v19.86c8.64-15.42 21.95-23.13 40.18-23.13 17.28 0 31.06 6.31 41.1 19.39zm-71.71 10.28c-6.07 8.41-9.11 19.62-9.11 33.16v2.34c0 14.02 3.27 25.23 10.28 33.87 6.54 8.41 15.19 12.85 26.39 12.85 13.09 0 22.9-4.67 29.67-13.55q9.11-12.61 9.11-34.34c0-14.24-3.04-25.69-8.64-34.1-6.77-9.81-16.59-14.48-29.44-14.48-12.14 0-21.72 4.67-28.26 14.25z"/>
		<path fill-rule="evenodd" class="s0" d="m1342.26 859.67v69.15q6.39-11.57 17.05-17.52c6.63-3.74 13.97-5.61 22.27-5.61 14.21 0 25.34 3.97 32.91 12.38 7.58 8.18 11.37 20.09 11.37 35.5v76.16h-18.94v-73.35c0-11.21-2.85-19.86-8.06-25.93-5.68-6.07-13.49-9.11-23.68-9.11q-14.21 0-23.45 11.21c-6.39 7.48-9.47 17.05-9.47 28.27v68.91h-18.94v-170.06z"/>
		<path fill-rule="evenodd" class="s0" d="m1480.1 1029.72h-18.95v-120.76h18.95zm0.71-162.34q4.26 3.5 4.26 9.81c0 3.97-1.42 7.24-4.26 10.05-2.84 2.56-6.16 3.97-10.18 3.97-4.03 0-7.35-1.41-10.19-3.97-2.84-2.81-4.02-6.08-4.02-10.05 0-4.2 1.18-7.48 4.02-9.81 2.84-2.8 6.16-3.97 10.19-3.97 4.02 0 7.34 1.17 10.18 3.97z"/>
		<path fill-rule="evenodd" class="s0" d="m1604.91 916.2c9.47 7.24 15.16 18.22 17.28 32.94h-18.7q-2.49-14.02-11.37-21.03c-6.16-4.67-13.98-6.77-23.68-6.77-11.85 0-21.32 4.44-28.19 13.32q-9.94 12.96-9.94 35.03c0 14.72 3.08 26.4 9.71 34.81 6.39 8.41 15.86 12.84 28.18 12.84 20.84 0 32.92-10.51 35.76-31.29h18.95c-2.84 15.41-8.77 27.32-18.24 35.27-9.23 7.71-21.31 11.67-36.47 11.67-18.47 0-32.68-6.07-42.87-18.21-9.71-11.45-14.44-26.4-14.44-44.85 0-18.45 4.73-33.4 14.44-45.09 10.42-12.84 24.87-19.15 43.11-19.15 15.15 0 27.23 3.5 36.47 10.51z"/>
		<path fill-rule="evenodd" class="s0" d="m853.2 1184.61v74.28h-18.69v-72.88c0-23.59-10.74-35.27-31.77-35.27q-12.61 0-21.72 9.12c-6.54 6.53-10.04 15.17-10.74 26.15v72.88h-18.7v-120.76h18.7v17.75q6.29-10.16 16.11-15.42 9.81-5.6 21.73-5.6c29.89 0 45.08 16.58 45.08 49.75z"/>
		<path fill-rule="evenodd" class="s0" d="m981.66 1153.55c10.27 11.91 15.41 26.86 15.41 45.08 0 17.98-5.14 32.93-15.18 44.62q-16.47 18.91-43.45 18.91c-18.22 0-32.46-6.31-43.21-18.91-10.28-11.69-15.42-26.64-15.42-44.62 0-18.22 5.14-33.17 15.42-45.08 10.75-12.62 24.99-18.69 43.21-18.69 17.99 0 32.47 6.07 43.22 18.69zm-73.12 11.67c-6.53 8.88-9.58 19.86-9.58 33.41 0 13.31 3.05 24.29 9.58 33.17 7.01 9.81 17.06 14.71 29.9 14.71q18.92 0 30.13-14.71c6.31-8.88 9.58-20.09 9.58-33.17 0-13.55-3.27-24.53-9.58-33.41q-11.21-14.71-30.13-14.71c-12.84 0-22.89 4.91-29.9 14.71z"/>
		<path fill-rule="evenodd" class="s0" d="m1053.59 1138.13h29.9v15.65h-29.9v76.85c0 4.44 0.7 7.71 2.57 9.57 1.64 1.87 4.67 3.05 8.87 3.05h15.42v15.64h-18.22c-9.81 0-17.05-2.57-21.26-7.71-3.97-4.67-5.84-11.44-5.84-20.55v-76.85h-24.29v-15.65h24.29v-31.31l18.46-7.7z"/>
		<path fill-rule="evenodd" class="s0" d="m1195.14 1148.41c7 7.94 10.74 18.92 10.74 32.93v77.55h-17.52v-20.32c-4.67 6.54-10.98 11.91-18.45 16.11-8.88 4.91-18.93 7.48-30.14 7.48-12.14 0-21.72-3.03-28.96-9.1-7.47-6.31-11.22-14.49-11.22-24.3 0-13.78 5.37-24.06 16.59-31.07 9.81-6.54 23.83-10.04 42.05-10.28l28.96-0.46v-6.31c0-20.32-10.51-30.36-31.53-30.36-8.88 0-16.12 1.63-21.72 5.37-6.31 3.73-10.28 9.58-12.15 17.28l-18.45-1.4c2.56-12.61 8.87-22.19 18.68-28.26 8.87-5.61 20.32-8.41 34.81-8.41 17.28 0 29.9 4.44 38.31 13.55zm-35.75 53.02c-27.09 0.47-40.64 9.34-40.64 26.86 0 5.61 2.1 10.04 6.77 13.79 4.67 3.5 10.75 5.37 18.22 5.37 11.45 0 21.49-3.74 30.37-11.22 8.65-7.24 13.08-15.65 13.08-24.99v-10.28z"/>
		<path fill-rule="evenodd" class="s0" d="m1267.07 1138.13h29.9v15.65h-29.9v76.85c0 4.44 0.7 7.71 2.57 9.57 1.63 1.87 4.67 3.05 8.87 3.05h15.42v15.64h-18.22c-9.81 0-17.05-2.57-21.26-7.71-3.97-4.67-5.84-11.44-5.84-20.55v-76.85h-24.29v-15.65h24.29v-31.31l18.46-7.7z"/>
		<path fill-rule="evenodd" class="s0" d="m1342.51 1258.89h-18.68v-120.76h18.68zm0.7-162.35q4.21 3.51 4.21 9.82c0 3.97-1.41 7.24-4.21 10.04-2.8 2.57-6.07 3.97-10.04 3.97-3.97 0-7.25-1.4-10.04-3.97-2.81-2.8-3.98-6.07-3.98-10.04 0-4.21 1.17-7.48 3.98-9.82 2.79-2.79 6.07-3.96 10.04-3.96 3.97 0 7.24 1.17 10.04 3.96z"/>
		<path fill-rule="evenodd" class="s0" d="m1474.71 1153.55c10.28 11.91 15.42 26.86 15.42 45.08 0 17.98-5.14 32.93-15.18 44.62q-16.47 18.91-43.45 18.91c-18.22 0-32.47-6.31-43.21-18.91-10.28-11.69-15.42-26.64-15.42-44.62 0-18.22 5.14-33.17 15.42-45.08 10.74-12.62 24.99-18.69 43.21-18.69 17.98 0 32.47 6.07 43.21 18.69zm-73.11 11.67c-6.54 8.88-9.58 19.86-9.58 33.41 0 13.31 3.04 24.29 9.58 33.17 7.01 9.81 17.05 14.71 29.9 14.71q18.92 0 30.13-14.71c6.31-8.88 9.58-20.09 9.58-33.17 0-13.55-3.27-24.53-9.58-33.41q-11.21-14.71-30.13-14.71c-12.85 0-22.89 4.91-29.9 14.71z"/>
		<path fill-rule="evenodd" class="s0" d="m1616.02 1184.61v74.28h-18.69v-72.88c0-23.59-10.74-35.27-31.76-35.27q-12.62 0-21.73 9.12c-6.54 6.53-10.04 15.17-10.74 26.15v72.88h-18.69v-120.76h18.69v17.75q6.3-10.16 16.12-15.42 9.8-5.6 21.72-5.6c29.89 0 45.08 16.58 45.08 49.75z"/>
		<path fill-rule="evenodd" class="s0" d="m2162.67 239.45l-380.7 1020.29h17.78l380.71-1020.29z"/>
	</g>
	<g id="Laag 1">
		<path fill-rule="evenodd" class="s0" d="m283.71 270.67l78.5-207.01c-133.62-46.68-281.37 19.44-330 147.7-48.47 127.83 19.83 269.1 152.58 316.25l-78.5 207.01c133.62 46.68 281.36-19.44 329.99-147.7 48.48-127.83-19.82-269.1-152.57-316.25z"/>
		<path fill-rule="evenodd" class="s0" d="m523.19 259.4v486.18h218.01v-486.18z"/>
		<path fill-rule="evenodd" class="s0" d="m1327.64 503.87l-254.26 0.07 87.14-232.97c-133.62-46.68-281.36 19.44-329.99 147.69-10.02 26.42-14.97 53.4-15.48 80.02-1.35 70.58 29.06 138.52 82.74 186.12 25.02 21.69 54.51 38.69 86.97 49.67 24.68 8.34 51.08 13.17 78.54 13.88v0.15h264.26z"/>
		<path fill-rule="evenodd" class="s0" d="m1882.23 748.7v-244.99h-150.69l-147.18-244.69h-256.51v244.58h151.88l147.55 245.3z"/>
		<path fill-rule="evenodd" class="s0" d="m2336.02 620.38c0-66.49-56.36-120.59-125.64-120.59-69.27 0-125.63 54.1-125.63 120.59 0 66.49 56.36 120.59 125.63 120.59 50.61 0 96.04-28.91 115.75-73.65l-0.58-0.23h-25.99c-17.69 31.15-51.65 50.83-89.18 50.83-51.98 0-94.96-37.64-100.92-86.02h226.56zm-226.56-11.52c5.96-48.38 48.94-86.03 100.92-86.03 51.98 0 94.96 37.65 100.93 86.03z"/>
	</g>
</svg>