<svg version="1.2" xmlns="http://www.w3.org/2000/svg" viewBox="0 0 800 800" width="800" height="800">
	<style>
		.s0 { fill: #ffad56 } 
	</style>
	<g id="Layer 1">
		<path class="s0" d="m203.63 513.84h167.07v172.1c0 50.89 21.1 93.75 29.47 93.75 8.37 0 29.46-42.86 29.46-93.75v-172.1h166.74c23.11 0 39.85-14.73 39.85-37.17 0-14.06-4.36-24.1-14.07-34.48l-102.45-111.16c-7.03-7.37-11.39-12.73-9.71-26.45l17.07-122.21c1.01-7.03 1.68-11.05 7.71-15.41l82.36-59.59c18.42-13.4 26.45-29.8 26.45-44.87 0-22.43-18.08-42.19-43.86-42.19h-399.44c-25.78 0-43.86 19.76-43.86 42.19 0 15.07 8.03 31.47 26.11 44.87l82.37 59.59c6.36 4.36 7.03 8.38 8.03 15.41l17.08 122.21c1.68 13.72-2.68 19.08-9.71 26.45l-102.45 111.16c-9.71 10.38-14.07 20.42-14.07 34.48 0 22.44 16.74 37.17 39.85 37.17z"/>
	</g>
</svg>